<svg xmlns="http://www.w3.org/2000/svg" viewBox="40 30 320 240" width="400" height="300" preserveAspectRatio="xMidYMid slice" style="display:block"><defs>
<linearGradient id="sm" x1="0" y1="0" x2="0" y2="1">
<stop offset="0" stop-color="#7D848B"></stop><stop offset="0.16" stop-color="#DDE1E4"></stop>
<stop offset="0.3" stop-color="#FFFFFF"></stop><stop offset="0.5" stop-color="#B9BFC5"></stop>
<stop offset="0.78" stop-color="#6A7178"></stop><stop offset="1" stop-color="#3B4046"></stop>
</linearGradient>
<radialGradient id="sv" cx="0.3" cy="0.25" r="0.95">
<stop offset="0" stop-color="#FFFFFF" stop-opacity="0.10"></stop>
<stop offset="0.55" stop-color="#FFFFFF" stop-opacity="0"></stop>
<stop offset="1" stop-color="#000000" stop-opacity="0.42"></stop>
</radialGradient>
<pattern id="sp" width="12.4" height="12.4" patternUnits="userSpaceOnUse">
<path d="M12.4 0L0 0L0 12.4" fill="none" stroke="#3B4C45" stroke-width="0.7"></path>
</pattern>
<filter id="sb" x="-20%" y="-80%" width="140%" height="260%"><feGaussianBlur stdDeviation="5"></feGaussianBlur></filter>
</defs><rect width="400" height="300" fill="#26332F"></rect>
<rect width="400" height="300" fill="url(#sp)"></rect>
<path d="M62 0V300M124 0V300M186 0V300M248 0V300M310 0V300M372 0V300M0 26H400M0 88H400M0 150H400M0 212H400M0 274H400" fill="none" stroke="#4A6058" stroke-width="1.1"></path>
<rect width="400" height="300" fill="url(#sv)"></rect>
<ellipse cx="203" cy="186" rx="138" ry="9" fill="#000000" opacity="0.5" filter="url(#sb)"></ellipse>
<rect x="70" y="122.1" width="20" height="55.8" rx="3" fill="url(#sm)"></rect>
<path d="M90 129.8H294.7V136.6H307.1V129.8H326.5L331.5 134.8V165.2L326.5 170.2H307.1V163.4H294.7V170.2H90Z" fill="url(#sm)"></path>
<rect x="294.7" y="136.6" width="12.4" height="26.8" fill="#000000" opacity="0.22"></rect>
<path d="M294.7 129.8V170.2M307.1 129.8V170.2" stroke="#2A2F34" stroke-width="1" opacity="0.7"></path>
<rect x="89.5" y="129.8" width="1.6" height="40.4" fill="#23272B" opacity="0.7"></rect><g opacity="0.7">
<path d="M79.0 140.0L322.5 140.0" stroke="rgba(14,15,17,0.85)" stroke-width="5" stroke-linecap="round"></path>
<path d="M79.0 140.0L322.5 140.0" stroke="#38ABDF" stroke-width="2"></path>
<path d="M70.0 140.0L80.0 135.0L80.0 145.0Z" fill="#38ABDF"></path><path d="M331.5 140.0L321.5 145.0L321.5 135.0Z" fill="#38ABDF"></path><path d="M70.0 129.0L70.0 151.0" stroke="#38ABDF" stroke-width="1.5" stroke-dasharray="4 3"></path><path d="M331.5 129.0L331.5 151.0" stroke="#38ABDF" stroke-width="1.5" stroke-dasharray="4 3"></path>
</g>
<rect x="136.8" y="99.0" width="128.0" height="22" rx="11" fill="rgba(14,15,17,0.8)"></rect>
<text x="200.8" y="114.3" text-anchor="middle" font-family="ui-monospace,'SF Mono',Menlo,monospace" font-size="12" font-weight="500" fill="#38ABDF">overall_l 42.18</text><g opacity="0.7">
<path d="M250.0 138.8L250.0 161.2" stroke="rgba(14,15,17,0.85)" stroke-width="5" stroke-linecap="round"></path>
<path d="M250.0 138.8L250.0 161.2" stroke="#38ABDF" stroke-width="2"></path>
<path d="M250.0 129.8L255.0 139.8L245.0 139.8Z" fill="#38ABDF"></path><path d="M250.0 170.2L245.0 160.2L255.0 160.2Z" fill="#38ABDF"></path><path d="M261.0 129.8L239.0 129.8" stroke="#38ABDF" stroke-width="1.5" stroke-dasharray="4 3"></path><path d="M261.0 170.2L239.0 170.2" stroke="#38ABDF" stroke-width="1.5" stroke-dasharray="4 3"></path>
</g>
<rect x="189.6" y="179.0" width="120.8" height="22" rx="11" fill="rgba(14,15,17,0.8)"></rect>
<text x="250.0" y="194.3" text-anchor="middle" font-family="ui-monospace,'SF Mono',Menlo,monospace" font-size="12" font-weight="500" fill="#38ABDF">⌀ pin_dia 6.51</text></svg>
